<?xml version="1.0" encoding="UTF-8" standalone="no"?>
<!-- Created with Inkscape (http://www.inkscape.org/) -->

<svg
   width="143.62813mm"
   height="59.311207mm"
   viewBox="0 0 143.62813 59.311207"
   version="1.1"
   id="svg1"
   xml:space="preserve"
   inkscape:version="1.3.2 (091e20ef0f, 2023-11-25)"
   sodipodi:docname="logo.svg"
   xmlns:inkscape="http://www.inkscape.org/namespaces/inkscape"
   xmlns:sodipodi="http://sodipodi.sourceforge.net/DTD/sodipodi-0.dtd"
   xmlns="http://www.w3.org/2000/svg"
   xmlns:svg="http://www.w3.org/2000/svg"><sodipodi:namedview
     id="namedview1"
     pagecolor="#505050"
     bordercolor="#eeeeee"
     borderopacity="1"
     inkscape:showpageshadow="0"
     inkscape:pageopacity="0"
     inkscape:pagecheckerboard="0"
     inkscape:deskcolor="#505050"
     inkscape:document-units="mm"
     inkscape:zoom="1"
     inkscape:cx="198"
     inkscape:cy="212"
     inkscape:window-width="2556"
     inkscape:window-height="1394"
     inkscape:window-x="0"
     inkscape:window-y="0"
     inkscape:window-maximized="0"
     inkscape:current-layer="layer1" /><defs
     id="defs1" /><g
     inkscape:label="Layer 1"
     inkscape:groupmode="layer"
     id="layer1"
     transform="translate(-25.25552,-114.32147)"><rect
       style="fill:#2e222e;fill-opacity:1;stroke-width:1.12795;stroke-linecap:round;stroke-linejoin:round"
       id="rect1"
       width="143.62813"
       height="59.311207"
       x="25.25552"
       y="114.32147"
       rx="9.0913706"
       ry="9.0913706" /><text
       xml:space="preserve"
       style="font-style:normal;font-variant:normal;font-weight:normal;font-stretch:normal;font-size:28.2223px;line-height:0.8;font-family:GROBOLD;-inkscape-font-specification:GROBOLD;text-align:center;text-anchor:middle;fill:#ffffff;fill-opacity:1;stroke-width:1.14379;stroke-linecap:round;stroke-linejoin:round"
       x="97.664215"
       y="163.4662"
       id="text1"><tspan
         sodipodi:role="line"
         id="tspan1"
         style="font-style:normal;font-variant:normal;font-weight:normal;font-stretch:normal;font-family:GROBOLD;-inkscape-font-specification:GROBOLD;fill:#ffffff;fill-opacity:1;stroke-width:1.14379"
         x="97.664215"
         y="163.4662">BannerPy</tspan></text><path
       style="fill:#ffffff;fill-opacity:1;stroke-width:1.14379;stroke-linecap:round;stroke-linejoin:round"
       d="m 33.757928,163.56711 -0.948233,-44.70357 c 0.704473,-0.49419 1.436585,-0.56185 2.205442,-0.0624 l 0.95731,44.88677 z"
       id="path1"
       sodipodi:nodetypes="ccccc" /><path
       style="fill:#ffffff;fill-opacity:1;stroke-width:1.03836;stroke-linecap:round;stroke-linejoin:round"
       d="m 36.126257,119.25814 c 0.168691,-0.18652 12.85012,0.55699 20.432897,2.76073 7.565741,2.19879 17.947828,4.06808 26.129099,2.73381 9.385732,-1.5307 18.996087,-3.97236 19.376367,-3.45651 0.20905,0.28358 -1.21894,5.21373 -1.63408,9.90686 -0.34005,3.84408 0.34959,7.62276 0.22764,7.77073 -0.27084,0.32863 -14.788116,3.23241 -27.499499,3.33698 -14.462811,0.11897 -15.64211,-4.00991 -24.706747,-4.5589 -5.842709,-0.35386 -11.688839,0.88795 -11.941257,0.35746 -0.185171,-0.38916 0.580427,-4.58331 0.490078,-8.93104 -0.09931,-4.77903 -1.038591,-9.73873 -0.874498,-9.92017 z"
       id="path2"
       sodipodi:nodetypes="ssssssssssss" /></g></svg>
